<svg viewBox="128 51 424 424" role="img" xmlns="http://www.w3.org/2000/svg"><title>Ícone do Tela</title><desc>Televisão retrô cartunizada de corpo laranja com duas antenas, tela escura exibindo um símbolo de play verde, dois botões e grade de alto-falante.</desc><defs><clipPath id="scr"><rect x="206" y="222" width="208" height="162" rx="14"/></clipPath></defs><path d="M300 200 L232 100" fill="none" stroke="#17171F" stroke-width="10" stroke-linecap="round"/><path d="M382 200 L452 90" fill="none" stroke="#17171F" stroke-width="10" stroke-linecap="round"/><circle cx="226" cy="90" r="15" fill="#E8574A" stroke="#17171F" stroke-width="8"/><circle cx="458" cy="80" r="15" fill="#E8574A" stroke="#17171F" stroke-width="8"/><path d="M222 418 L198 454" fill="none" stroke="#17171F" stroke-width="14" stroke-linecap="round"/><path d="M458 418 L482 454" fill="none" stroke="#17171F" stroke-width="14" stroke-linecap="round"/><rect x="170" y="186" width="340" height="234" rx="30" fill="#F0A63C" stroke="#17171F" stroke-width="9"/><rect x="428" y="206" width="66" height="194" rx="18" fill="#D98A28" stroke="#17171F" stroke-width="7"/><rect x="196" y="212" width="228" height="182" rx="20" fill="#17171F"/><rect x="206" y="222" width="208" height="162" rx="14" fill="#1E2A35"/><g clip-path="url(#scr)"><path d="M212 392 L268 214 L300 214 L244 392 Z" fill="#FFFFFF" opacity="0.08"/><path d="M312 392 L368 214 L386 214 L330 392 Z" fill="#FFFFFF" opacity="0.05"/></g><path d="M291 275 L343 303 L291 331 Z" fill="#22E07A" stroke="#22E07A" stroke-width="10" stroke-linejoin="round"/><circle cx="461" cy="250" r="19" fill="#F5EBD8" stroke="#17171F" stroke-width="7"/><path d="M461 250 L470 241" fill="none" stroke="#17171F" stroke-width="6" stroke-linecap="round"/><circle cx="461" cy="304" r="19" fill="#F5EBD8" stroke="#17171F" stroke-width="7"/><path d="M461 304 L453 296" fill="none" stroke="#17171F" stroke-width="6" stroke-linecap="round"/><rect x="443" y="338" width="36" height="8" rx="4" fill="#17171F"/><rect x="443" y="354" width="36" height="8" rx="4" fill="#17171F"/><rect x="443" y="370" width="36" height="8" rx="4" fill="#17171F"/></svg>
